<svg width="120" height="60" viewBox="0 0 120 60" fill="none" xmlns="http://www.w3.org/2000/svg">
<path d="M107.387 48.8022L109.506 47.9949C109.943 49.4413 111.457 50.5512 113.777 50.5512C116.569 50.5512 117.511 49.2731 117.511 47.9613C117.511 47.1204 117.208 46.4814 116.569 46.0441C115.964 45.6068 114.854 45.0687 113.273 44.4296C110.178 43.2187 108.665 41.9406 108.665 39.4852C108.665 36.8953 110.784 35.0117 113.777 35.0117C116.065 35.0117 117.713 35.9871 118.688 37.938L116.67 38.9807C116.065 37.8707 115.123 37.2989 113.811 37.2989C112.23 37.2989 111.154 38.1062 111.154 39.4852C111.154 40.8643 112.297 41.5706 114.854 42.546C118.352 43.8914 120 45.3714 120 47.9613C120 50.6521 117.814 52.8721 113.777 52.8721C110.548 52.8721 108.059 51.3921 107.387 48.8022Z" fill="white"/>
<path d="M89.1029 57.2783L90.3811 55.2938C92.4665 56.8074 94.72 57.5474 97.1081 57.5474C98.8908 57.5474 100.27 57.1437 101.313 56.3029C102.49 55.3274 103.062 53.5784 103.062 51.0557V49.6431C102.086 51.3585 100.102 52.6702 97.0409 52.6702C94.6528 52.6702 92.601 51.8294 90.9529 50.1812C89.3048 48.4995 88.4639 46.3804 88.4639 43.8578C88.4639 41.3352 89.3048 39.2161 90.9529 37.5344C92.601 35.8526 94.6528 35.0117 97.0409 35.0117C100.102 35.0117 102.086 36.3235 103.062 38.0389V35.5162H105.551V49.6431C105.551 51.8294 105.382 53.5784 105.046 54.8229C104.743 56.101 104.003 57.1774 102.86 58.0855C101.346 59.2628 99.4626 59.8682 97.1418 59.8682C94.1482 59.8682 91.491 58.9937 89.1029 57.2783ZM97.0409 50.3494C98.8572 50.3494 100.371 49.744 101.548 48.4995C102.759 47.255 103.364 45.7077 103.364 43.8578C103.364 42.0079 102.759 40.4606 101.548 39.2161C100.371 37.9716 98.8572 37.3326 97.0409 37.3326C95.2918 37.3326 93.8455 37.9716 92.6683 39.2161C91.5247 40.4606 90.9529 42.0079 90.9529 43.8578C90.9529 45.7077 91.5247 47.255 92.6683 48.4995C93.8455 49.744 95.2918 50.3494 97.0409 50.3494Z" fill="white"/>
<path d="M74.0701 52.4683H71.5811V35.5162H74.0701V38.3752C74.9782 36.4916 76.8954 35.2471 79.4181 35.2471C83.2189 35.2471 85.607 37.7697 85.607 41.6378V48.6339C85.607 50.013 85.8088 50.4166 86.7842 50.4166C86.9524 50.4166 87.1542 50.3829 87.4233 50.3493V52.4011C87.1542 52.502 86.7842 52.5692 86.3469 52.5692C85.0352 52.5692 83.118 52.1993 83.118 48.8021V42.1759C83.118 39.3506 81.4698 37.5679 78.779 37.5679C75.9873 37.5679 74.0701 39.5188 74.0701 42.3441V52.4683Z" fill="white"/>
<path d="M65.1599 49.2734V35.5165H67.6489V48.8361C67.6489 50.0806 67.9853 50.6188 68.9271 50.6188C69.1962 50.6188 69.4989 50.5851 69.8016 50.5515V52.6033C69.398 52.7714 68.8598 52.8723 68.2207 52.8723C66.169 52.8723 65.1599 51.6615 65.1599 49.2734ZM67.5817 32.2203C66.9089 32.8593 65.8999 32.8593 65.2272 32.2203C64.5545 31.5476 64.5545 30.4712 65.2272 29.8322C65.8999 29.1595 66.9089 29.1595 67.5817 29.8322C68.2544 30.4712 68.2544 31.5476 67.5817 32.2203Z" fill="white"/>
<path d="M52.4823 35.012C55.5431 35.012 57.5276 36.3238 58.503 38.0392V29.0249H60.992V48.6679C60.992 50.1479 61.3284 50.7869 62.2701 50.7869C62.5392 50.7869 62.8419 50.7533 63.1447 50.7197V52.6032C62.741 52.7714 62.2029 52.8723 61.5638 52.8723C60.8238 52.8723 60.2184 52.7041 59.7811 52.4014C59.1421 51.8969 58.7384 51.0896 58.6375 49.9797C57.3594 51.9642 55.3076 52.9732 52.4823 52.9732C50.0942 52.9732 48.0424 52.1323 46.3943 50.4169C44.7462 48.7015 43.9053 46.5489 43.9053 43.9926C43.9053 41.4363 44.7462 39.3173 46.3943 37.6019C48.0424 35.8865 50.0942 35.012 52.4823 35.012ZM52.4823 50.6524C54.2986 50.6524 55.8122 50.0133 56.9894 48.7688C58.2003 47.4907 58.8057 45.9098 58.8057 43.9926C58.8057 42.0754 58.2003 40.4945 56.9894 39.25C55.8122 37.9719 54.2986 37.3328 52.4823 37.3328C50.7332 37.3328 49.2869 37.9719 48.1097 39.25C46.9661 40.4945 46.3943 42.0754 46.3943 43.9926C46.3943 45.9098 46.9661 47.4907 48.1097 48.7688C49.2869 50.0133 50.7332 50.6524 52.4823 50.6524Z" fill="white"/>
<path d="M37.4688 48.197V29.0249H39.9578V48.0288C39.9578 49.9124 40.4959 50.6524 42.0768 50.6524C42.6486 50.6524 43.0522 50.6188 43.2877 50.5851V52.7041C42.9849 52.8723 42.4468 52.9732 41.7404 52.9732C40.6977 52.9732 39.9578 52.805 38.9823 52.2332C38.0405 51.6615 37.4688 50.2488 37.4688 48.197Z" fill="white"/>
<path d="M19.5933 50.4167C17.8442 48.7013 16.9697 46.5486 16.9697 43.9923C16.9697 41.4361 17.8442 39.317 19.5933 37.6016C21.3423 35.8862 23.4613 35.0117 25.984 35.0117C28.5066 35.0117 30.6257 35.8862 32.3747 37.6016C34.1237 39.317 34.9982 41.4361 34.9982 43.9923C34.9982 46.5486 34.1237 48.7013 32.3747 50.4167C30.6257 52.1321 28.5066 52.973 25.984 52.973C23.4613 52.973 21.3423 52.1321 19.5933 50.4167ZM21.3087 39.2498C20.0642 40.4943 19.4587 42.0751 19.4587 43.9923C19.4587 45.9096 20.0642 47.4904 21.3087 48.7686C22.5532 50.0131 24.1004 50.6521 25.984 50.6521C27.8676 50.6521 29.4148 50.0131 30.6593 48.7686C31.9038 47.4904 32.5092 45.9096 32.5092 43.9923C32.5092 42.0751 31.9038 40.4943 30.6593 39.2498C29.4148 37.9716 27.8676 37.3326 25.984 37.3326C24.1004 37.3326 22.5532 37.9716 21.3087 39.2498Z" fill="white"/>
<path d="M2.80542 52.4687H0.316406V29.0249H2.80542V38.3755C3.71357 36.4919 5.56351 35.2474 8.01889 35.2474C11.7524 35.2474 14.1069 37.7701 14.1069 41.6381V48.6343C14.1069 49.9797 14.3423 50.4169 15.2841 50.4169C15.4523 50.4169 15.6541 50.3833 15.9232 50.3497V52.4014C15.6205 52.5023 15.2841 52.5696 14.8469 52.5696C13.5351 52.5696 11.6179 52.1996 11.6179 48.8025V42.1763C11.6179 39.3509 10.0034 37.5683 7.41345 37.5683C4.72263 37.5683 2.80542 39.5191 2.80542 42.3445V52.4687Z" fill="white"/>
<path d="M116.547 9.2949C114.754 9.2949 113.295 7.83065 113.295 6.03119C113.297 4.22967 114.752 2.76983 116.547 2.76807C118.34 2.76807 119.8 4.23085 119.8 6.03119C119.8 7.83124 118.34 9.2949 116.547 9.2949Z" fill="#C0F43C"/>
<path d="M114.412 25.8242C112.291 25.8242 109.762 24.9237 109.762 20.6685V14.7697C109.762 12.6006 108.601 11.3569 106.573 11.3569C104.497 11.3569 103.103 12.7979 103.103 14.9447V25.6472H97.9023V6.91528H103.103V8.36569C104.247 7.2281 105.951 6.56299 107.867 6.56299C112.245 6.56299 114.963 9.4806 114.963 14.1782V19.7598C114.963 21.1004 115.188 21.1004 115.635 21.1004C115.8 21.0962 115.965 21.0756 116.127 21.04L116.747 20.9204V25.4781L116.372 25.5868C115.833 25.7414 115.189 25.8186 114.409 25.8186L114.412 25.8242Z" fill="white"/>
<path d="M93.7111 9.23062C91.7533 7.33896 89.3427 6.38135 86.5292 6.38135C83.716 6.38135 81.3037 7.34014 79.3452 9.23062C77.3821 11.1264 76.3867 13.4982 76.3867 16.2779C76.3867 19.0574 77.3824 21.4289 79.3452 23.3244C81.3037 25.216 83.7125 26.1739 86.5292 26.1739C89.3466 26.1739 91.7533 25.216 93.7111 23.3244C95.6731 21.4301 96.6694 19.0586 96.6694 16.2779C96.6694 13.4967 95.6731 11.1258 93.7111 9.23062ZM90.0516 19.8786C89.0941 20.8395 87.9443 21.3058 86.5366 21.3058C85.1056 21.3058 83.9446 20.8401 82.9898 19.8845C82.0522 18.8754 81.5958 17.6959 81.5958 16.2785C81.5958 14.8493 82.0522 13.6805 82.9898 12.7085C83.9341 11.7273 85.0941 11.2507 86.5366 11.2507C87.9526 11.2507 89.1006 11.7267 90.0516 12.7138C91.0091 13.6746 91.4741 14.8411 91.4741 16.2779C91.4735 17.7077 91.0068 18.8869 90.0516 19.8786Z" fill="white"/>
<path d="M69.6831 26.1376C66.8499 26.1376 64.4332 25.1912 62.4994 23.3243C60.5612 21.4518 59.5781 19.0694 59.5781 16.2425C59.5781 13.4389 60.5612 11.0686 62.4994 9.19606C64.4567 7.3044 66.8748 6.34473 69.6831 6.34473C72.641 6.34473 75.1475 7.42929 77.1292 9.56602L77.4647 9.92656L74.1571 13.3785L73.7843 12.982C72.7314 11.8318 71.2388 11.1879 69.6828 11.2138C68.2735 11.2138 67.1217 11.6807 66.1665 12.6409C65.2472 13.6009 64.7784 14.8027 64.7784 16.241C64.7784 17.6799 65.248 18.8873 66.1738 19.8458C67.1314 20.8067 68.2682 21.2674 69.6848 21.2674C71.2998 21.2674 72.6798 20.6715 73.7858 19.4988L74.1589 19.1018L77.4664 22.5558L77.1309 22.9163C75.1481 25.0525 72.6428 26.1364 69.6848 26.1364H69.6831V26.1376Z" fill="white"/>
<path d="M51.1894 26.1042C47.5149 26.1042 44.6929 24.6965 43.4501 22.2378L43.2637 21.8767L46.7253 18.9446L47.0447 19.4457C47.8185 20.6616 49.4338 21.4181 51.2593 21.4181C52.0509 21.4181 53.8896 21.2805 53.8896 20.0068C53.8896 19.509 53.3739 19.1812 53.152 19.0642L53.1156 19.0433C52.7854 18.8327 52.0671 18.5926 51.5898 18.433L51.0799 18.2672C50.531 18.0913 49.8503 17.873 49.3944 17.686C46.1647 16.5234 44.724 14.8341 44.724 12.2137C44.724 10.4272 45.3906 8.98943 46.6983 7.94286C48.0307 6.91043 49.6322 6.38965 51.4642 6.38965C54.0845 6.38965 56.1405 7.33253 57.577 9.19002L57.8488 9.54143L54.7864 12.7993L54.4139 12.3241C53.752 11.4835 52.7352 11.0481 51.3928 11.0481C50.6481 11.0481 49.7778 11.3256 49.7778 12.1076C49.7778 12.4375 49.9055 12.6152 50.3443 12.8985C50.4421 12.9601 50.7512 13.1209 51.6596 13.4732C52.141 13.6025 52.9447 13.8932 53.5949 14.1159L53.8744 14.2146C57.3824 15.4627 58.9452 17.2403 58.9452 19.9738C58.9452 23.7595 55.9717 26.1116 51.1838 26.1116L51.1894 26.1042Z" fill="white"/>
<path d="M41.0238 9.14569C39.3307 7.33533 37.0972 6.41748 34.3826 6.41748C31.5602 6.41748 29.2023 7.32973 27.3689 9.13302C25.5498 10.9584 24.627 13.3629 24.627 16.2784V16.4189C24.627 19.3162 25.5522 21.673 27.3759 23.4297C29.1949 25.1806 31.5881 26.0681 34.488 26.0681C37.5724 26.0681 40.1949 24.9511 42.2822 22.7458L42.6415 22.3723L39.3879 19.1972L39.0269 19.5601C37.7703 20.8202 36.3267 21.4435 34.6347 21.4435C32.0096 21.4435 30.2373 20.0827 29.8897 17.8511H43.5118L43.5482 17.3707C43.5852 16.8782 43.6198 16.3921 43.6198 15.8563C43.6198 13.2012 42.7474 10.9413 41.0294 9.14451L41.0238 9.14569ZM30.035 13.8625C30.2261 13.1661 30.645 12.572 31.3066 12.0612C32.1693 11.3885 33.2035 11.0406 34.382 11.0406C35.4628 11.0406 36.3695 11.3773 37.1627 12.0768C37.7709 12.5891 38.1381 13.1876 38.2602 13.8619H30.0418L30.035 13.8625Z" fill="white"/>
<path d="M17.9004 25.647H12.6992V6.91479H17.9004V8.38788C19.0193 7.2232 20.6863 6.5625 22.6304 6.5625C23.1511 6.5625 23.6087 6.60197 23.9912 6.67856L24.4083 6.7628V11.8973L23.7875 11.773C23.2447 11.6634 22.6929 11.608 22.1396 11.6074C19.5245 11.6074 17.9001 13.224 17.9001 15.8276L17.9004 25.647Z" fill="white"/>
<path d="M8.42621 26.1383C4.35576 26.1383 2.20503 23.8828 2.20503 19.6135V11.7764H0V6.90797H2.20445V0.131348H7.4414V6.90944H11.3307V11.7779H7.4414V19.1581C7.4414 20.9452 8.00851 21.2715 9.12629 21.2715C9.67373 21.2715 10.1035 21.2315 10.4786 21.1443L11.1144 20.997V25.8201L10.7146 25.9147C10.0844 26.0637 9.31386 26.1391 8.42621 26.1383Z" fill="white"/>
</svg>
