<svg width="187" height="92" viewBox="0 0 187 92" fill="none" xmlns="http://www.w3.org/2000/svg">
<path d="M6.72998 70.561H2.92831V34.7535H6.72998V49.0354C8.11707 46.1585 10.9426 44.2576 14.6929 44.2576C20.3954 44.2576 23.9916 48.1107 23.9916 54.0187V64.7044C23.9916 66.7594 24.3512 67.4272 25.7897 67.4272C26.0465 67.4272 26.3548 67.3759 26.7658 67.3245V70.4583C26.3034 70.6124 25.7897 70.7152 25.1218 70.7152C23.1182 70.7152 20.1899 70.15 20.1899 64.9613V54.8406C20.1899 50.5252 17.724 47.8024 13.7682 47.8024C9.65829 47.8024 6.72998 50.7821 6.72998 55.0975V70.561ZM32.3712 67.4272C29.6997 64.8072 28.364 61.5192 28.364 57.6148C28.364 53.7104 29.6997 50.4739 32.3712 47.8538C35.0426 45.2337 38.2791 43.898 42.1322 43.898C45.9852 43.898 49.2218 45.2337 51.8932 47.8538C54.5647 50.4739 55.9004 53.7104 55.9004 57.6148C55.9004 61.5192 54.5647 64.8072 51.8932 67.4272C49.2218 70.0473 45.9852 71.3316 42.1322 71.3316C38.2791 71.3316 35.0426 70.0473 32.3712 67.4272ZM34.9912 50.3711C33.0904 52.2719 32.1657 54.6865 32.1657 57.6148C32.1657 60.5431 33.0904 62.9577 34.9912 64.9099C36.8921 66.8107 39.2552 67.7868 42.1322 67.7868C45.0091 67.7868 47.3723 66.8107 49.2732 64.9099C51.174 62.9577 52.0987 60.5431 52.0987 57.6148C52.0987 54.6865 51.174 52.2719 49.2732 50.3711C47.3723 48.4189 45.0091 47.4428 42.1322 47.4428C39.2552 47.4428 36.8921 48.4189 34.9912 50.3711ZM59.6735 64.0366V34.7535H63.4752V63.7797C63.4752 66.6566 64.2972 67.7868 66.7118 67.7868C67.5851 67.7868 68.2016 67.7355 68.5612 67.6841V70.9207C68.0989 71.1775 67.2769 71.3316 66.198 71.3316C64.6054 71.3316 63.4752 71.0748 61.9854 70.2014C60.5469 69.3281 59.6735 67.1704 59.6735 64.0366ZM82.6056 43.898C87.2806 43.898 90.3116 45.9016 91.8015 48.5216V34.7535H95.6031V64.7558C95.6031 67.0162 96.1169 67.9923 97.5554 67.9923C97.9663 67.9923 98.4287 67.941 98.8911 67.8896V70.7665C98.2746 71.0234 97.4526 71.1775 96.4765 71.1775C95.3463 71.1775 94.4215 70.9207 93.7537 70.4583C92.7776 69.6877 92.1611 68.4547 92.007 66.7594C90.0548 69.7904 86.921 71.3316 82.6056 71.3316C78.958 71.3316 75.8242 70.0473 73.3069 67.4272C70.7896 64.8072 69.5052 61.5192 69.5052 57.6148C69.5052 53.7104 70.7896 50.4739 73.3069 47.8538C75.8242 45.2337 78.958 43.898 82.6056 43.898ZM82.6056 67.7868C85.3797 67.7868 87.6916 66.8107 89.4897 64.9099C91.3391 62.9577 92.2638 60.5431 92.2638 57.6148C92.2638 54.6865 91.3391 52.2719 89.4897 50.3711C87.6916 48.4189 85.3797 47.4428 82.6056 47.4428C79.9341 47.4428 77.725 48.4189 75.927 50.3711C74.1802 52.2719 73.3069 54.6865 73.3069 57.6148C73.3069 60.5431 74.1802 62.9577 75.927 64.9099C77.725 66.8107 79.9341 67.7868 82.6056 67.7868ZM101.969 65.6805V44.6686H105.77V65.0127C105.77 66.9135 106.284 67.7355 107.723 67.7355C108.134 67.7355 108.596 67.6841 109.058 67.6327V70.7665C108.442 71.0234 107.62 71.1775 106.644 71.1775C103.51 71.1775 101.969 69.3281 101.969 65.6805ZM105.668 39.634C104.64 40.6101 103.099 40.6101 102.071 39.634C101.044 38.6065 101.044 36.9625 102.071 35.9864C103.099 34.9589 104.64 34.9589 105.668 35.9864C106.695 36.9625 106.695 38.6065 105.668 39.634ZM115.578 70.561H111.777V44.6686H115.578V49.0354C116.965 46.1585 119.894 44.2576 123.747 44.2576C129.552 44.2576 133.2 48.1107 133.2 54.0187V64.7044C133.2 66.8107 133.508 67.4272 134.998 67.4272C135.255 67.4272 135.563 67.3759 135.974 67.3245V70.4583C135.563 70.6124 134.998 70.7152 134.33 70.7152C132.326 70.7152 129.398 70.15 129.398 64.9613V54.8406C129.398 50.5252 126.881 47.8024 122.771 47.8024C118.507 47.8024 115.578 50.7821 115.578 55.0975V70.561ZM138.54 77.9075L140.492 74.8764C143.677 77.1883 147.119 78.3185 150.767 78.3185C153.489 78.3185 155.596 77.702 157.188 76.4177C158.986 74.9278 159.86 72.2564 159.86 68.4033V66.2456C158.37 68.8657 155.339 70.8693 150.664 70.8693C147.016 70.8693 143.883 69.5849 141.365 67.0676C138.848 64.4989 137.564 61.2624 137.564 57.4093C137.564 53.5563 138.848 50.3197 141.365 47.751C143.883 45.1823 147.016 43.898 150.664 43.898C155.339 43.898 158.37 45.9016 159.86 48.5216V44.6686H163.661V66.2456C163.661 69.5849 163.405 72.2564 162.891 74.1572C162.428 76.1094 161.298 77.7534 159.552 79.1405C157.24 80.9386 154.363 81.8633 150.818 81.8633C146.246 81.8633 142.187 80.5276 138.54 77.9075ZM150.664 67.3245C153.438 67.3245 155.75 66.3998 157.548 64.4989C159.397 62.5981 160.322 60.2349 160.322 57.4093C160.322 54.5838 159.397 52.2206 157.548 50.3197C155.75 48.4189 153.438 47.4428 150.664 47.4428C147.992 47.4428 145.783 48.4189 143.985 50.3197C142.239 52.2206 141.365 54.5838 141.365 57.4093C141.365 60.2349 142.239 62.5981 143.985 64.4989C145.783 66.3998 147.992 67.3245 150.664 67.3245ZM166.467 64.9613L169.704 63.7283C170.371 65.9374 172.683 67.6327 176.228 67.6327C180.492 67.6327 181.93 65.6805 181.93 63.6769C181.93 62.3926 181.468 61.4165 180.492 60.7486C179.567 60.0808 177.872 59.2588 175.457 58.2827C170.731 56.4332 168.419 54.481 168.419 50.7307C168.419 46.7749 171.656 43.898 176.228 43.898C179.721 43.898 182.239 45.3878 183.729 48.3675L180.646 49.9601C179.721 48.2648 178.283 47.3914 176.279 47.3914C173.865 47.3914 172.221 48.6244 172.221 50.7307C172.221 52.8371 173.968 53.9159 177.872 55.4057C183.215 57.4607 185.732 59.7212 185.732 63.6769C185.732 67.7868 182.393 71.1775 176.228 71.1775C171.296 71.1775 167.494 68.9171 166.467 64.9613Z" fill="#00A5A3"/>
<path d="M135.981 11.234C133.928 11.234 132.258 9.55788 132.258 7.49802C132.26 5.4358 133.925 3.76472 135.981 3.7627C138.034 3.7627 139.704 5.43715 139.704 7.49802C139.704 9.55855 138.033 11.234 135.981 11.234Z" fill="#C0F43C"/>
<path d="M133.535 30.1554C131.108 30.1554 128.213 29.1246 128.213 24.2537V17.5012C128.213 15.0182 126.883 13.5946 124.562 13.5946C122.186 13.5946 120.59 15.2441 120.59 17.7015V29.9528H114.637V8.51021H120.59V10.1705C121.9 8.86829 123.85 8.10693 126.044 8.10693C131.055 8.10693 134.166 11.4467 134.166 16.8242V23.2135C134.166 24.748 134.423 24.748 134.935 24.748C135.124 24.7433 135.314 24.7197 135.498 24.6789L136.208 24.542V29.7592L135.779 29.8836C135.162 30.0607 134.425 30.149 133.532 30.149L133.535 30.1554Z" fill="#00A5A3"/>
<path d="M109.835 11.1605C107.594 8.99511 104.835 7.89893 101.614 7.89893C98.3938 7.89893 95.6324 8.99646 93.3906 11.1605C91.1433 13.3306 90.0039 16.0456 90.0039 19.2276C90.0039 22.4093 91.1436 25.124 93.3906 27.2938C95.6324 29.4591 98.3897 30.5557 101.614 30.5557C104.839 30.5557 107.594 29.4591 109.835 27.2938C112.081 25.1253 113.222 22.4107 113.222 19.2276C113.222 16.0439 112.081 13.33 109.835 11.1605ZM105.646 23.3494C104.55 24.4493 103.234 24.983 101.623 24.983C99.9844 24.983 98.6555 24.4499 97.5625 23.3561C96.4893 22.2009 95.9668 20.8508 95.9668 19.2283C95.9668 17.5923 96.4893 16.2543 97.5625 15.1416C98.6434 14.0185 99.9713 13.4729 101.623 13.4729C103.243 13.4729 104.558 14.0178 105.646 15.1477C106.742 16.2476 107.275 17.5829 107.275 19.2276C107.274 20.8643 106.74 22.2141 105.646 23.3494Z" fill="#00A5A3"/>
<path d="M82.3367 30.515C79.0935 30.515 76.3272 29.4316 74.1135 27.2945C71.8948 25.1511 70.7695 22.4239 70.7695 19.188C70.7695 15.9786 71.8948 13.2653 74.1135 11.1219C76.354 8.95646 79.1221 7.85791 82.3367 7.85791C85.7227 7.85791 88.5919 9.09942 90.8603 11.5454L91.2444 11.9581L87.4582 15.9095L87.0315 15.4557C85.8262 14.139 84.1176 13.4019 82.3364 13.4316C80.7232 13.4316 79.4047 13.966 78.3113 15.0652C77.2589 16.1641 76.7223 17.5398 76.7223 19.1863C76.7223 20.8334 77.2599 22.2155 78.3197 23.3127C79.4158 24.4126 80.7171 24.94 82.3387 24.94C84.1875 24.94 85.7671 24.2579 87.0332 22.9155L87.4602 22.461L91.2464 26.4148L90.8624 26.8275C88.5926 29.2728 85.7247 30.5136 82.3387 30.5136H82.3367V30.515Z" fill="#00A5A3"/>
<path d="M61.1625 30.4756C56.9563 30.4756 53.7259 28.8642 52.3032 26.0497L52.0898 25.6363L56.0524 22.28L56.418 22.8535C57.3037 24.2454 59.1528 25.1113 61.2425 25.1113C62.1487 25.1113 64.2535 24.9539 64.2535 23.4959C64.2535 22.926 63.6631 22.5508 63.4091 22.4169L63.3674 22.393C62.9894 22.1519 62.1672 21.8771 61.6208 21.6943L61.0372 21.5045C60.4088 21.3032 59.6296 21.0533 59.1078 20.8392C55.4106 19.5083 53.7615 17.5746 53.7615 14.575C53.7615 12.53 54.5246 10.8842 56.0215 9.68618C57.5467 8.50435 59.38 7.9082 61.477 7.9082C64.4766 7.9082 66.83 8.98753 68.4744 11.1138L68.7856 11.5161L65.28 15.2453L64.8536 14.7014C64.0959 13.7391 62.9319 13.2408 61.3953 13.2408C60.5429 13.2408 59.5466 13.5584 59.5466 14.4536C59.5466 14.8313 59.6928 15.0346 60.1951 15.359C60.307 15.4294 60.6608 15.6135 61.7008 16.0168C62.2518 16.1648 63.1718 16.4976 63.9161 16.7525L64.236 16.8655C68.2517 18.2941 70.0406 20.3291 70.0406 23.4581C70.0406 27.7916 66.6368 30.484 61.1561 30.484L61.1625 30.4756Z" fill="#00A5A3"/>
<path d="M49.5274 11.0634C47.5893 8.9911 45.0326 7.94043 41.9252 7.94043C38.6944 7.94043 35.9952 8.98469 33.8965 11.0489C31.8142 13.1385 30.7578 15.8909 30.7578 19.2283V19.3892C30.7578 22.7057 31.8169 25.4035 33.9046 27.4145C35.9868 29.4187 38.7263 30.4347 42.0458 30.4347C45.5766 30.4347 48.5785 29.156 50.9679 26.6315L51.3792 26.204L47.6548 22.5695L47.2415 22.9849C45.8031 24.4274 44.1506 25.1409 42.2138 25.1409C39.2088 25.1409 37.18 23.5831 36.7822 21.0286H52.3755L52.4171 20.4786C52.4595 19.9148 52.4991 19.3585 52.4991 18.7452C52.4991 15.7058 51.5005 13.1189 49.5338 11.0621L49.5274 11.0634ZM36.9485 16.4628C37.1672 15.6657 37.6467 14.9856 38.4041 14.4009C39.3916 13.6307 40.5754 13.2325 41.9245 13.2325C43.1617 13.2325 44.1996 13.6179 45.1075 14.4187C45.8037 15.0051 46.2241 15.6903 46.3639 16.4621H36.9562L36.9485 16.4628Z" fill="#00A5A3"/>
<path d="M23.0553 29.9526H17.1016V8.50972H23.0553V10.196C24.3362 8.86275 26.2444 8.10645 28.4698 8.10645C29.0659 8.10645 29.5898 8.15163 30.0276 8.2393L30.5051 8.33573V14.2132L29.7944 14.0709C29.1731 13.9455 28.5414 13.8821 27.908 13.8814C24.9145 13.8814 23.055 15.7319 23.055 18.7122L23.0553 29.9526Z" fill="#00A5A3"/>
<path d="M12.212 30.5149C7.55248 30.5149 5.09052 27.9331 5.09052 23.046V14.0749H2.56641V8.50188H5.08985V0.744629H11.0846V8.50357H15.5368V14.0765H11.0846V22.5247C11.0846 24.5704 11.7338 24.944 13.0133 24.944C13.64 24.944 14.1319 24.8981 14.5613 24.7983L15.2891 24.6297V30.1508L14.8315 30.259C14.1101 30.4296 13.2281 30.516 12.212 30.5149Z" fill="#00A5A3"/>
</svg>
