<svg width="47" height="39" viewBox="0 0 47 39" fill="none" xmlns="http://www.w3.org/2000/svg">
<path d="M14.5943 38.3656H0.765652C0.616957 37.3743 0.468261 36.1848 0.319565 34.797C0.17087 33.3596 0.0965217 31.7983 0.0965217 30.113C0.0965217 24.3635 0.889565 19.06 2.47565 14.2026C4.06174 9.34521 6.66391 4.76043 10.2822 0.448256L20.6165 3.27347C18.4357 7.04043 16.8 11.0552 15.7096 15.3178C14.6191 19.5309 14.0739 24.2148 14.0739 29.3696C14.0739 30.9061 14.1235 32.393 14.2226 33.8304C14.3217 35.2678 14.4457 36.7796 14.5943 38.3656ZM40.8391 38.3656H27.0104C26.8617 37.3743 26.713 36.1848 26.5643 34.797C26.4157 33.3596 26.3413 31.7983 26.3413 30.113C26.3413 24.3635 27.1343 19.06 28.7204 14.2026C30.3065 9.34521 32.9087 4.76043 36.527 0.448256L46.8613 3.27347C44.6804 7.04043 43.0448 11.0552 41.9543 15.3178C40.8639 19.5309 40.3187 24.2148 40.3187 29.3696C40.3187 30.9061 40.3683 32.393 40.4674 33.8304C40.5665 35.2678 40.6904 36.7796 40.8391 38.3656Z" fill="white"/>
</svg>
